<svg width="512" height="512" viewBox="0 0 512 512" fill="none" xmlns="http://www.w3.org/2000/svg">
<g clip-path="url(#clip0_36_16)">
<rect x="-1" width="512" height="512" rx="96" fill="url(#paint0_linear_36_16)"/>
<path d="M426.338 80.7385C381.046 37.4154 318.031 12.8 256 14.7692C280.615 15.7538 304.246 20.6769 326.892 28.5538C322.954 50.2154 320.985 71.8769 320 92.5538C318.031 115.2 318.031 136.862 318.031 159.508C318.031 172.308 318.031 186.092 319.015 198.892C314.092 196.923 310.154 193.969 305.231 192C295.385 184.123 284.554 177.231 273.723 170.338C255.015 157.538 236.308 145.723 216.615 134.892C196.923 124.062 178.215 113.231 157.538 103.385C138.831 94.5231 120.123 85.6615 101.415 78.7692C120.123 61.0461 142.769 46.2769 166.4 35.4461C193.969 22.6461 224.492 15.7538 256 14.7692C193.969 12.8 130.954 37.4154 85.6615 80.7385C40.3692 124.062 12.8 187.077 11.8154 251.077C10.8308 315.077 37.4154 379.077 82.7077 424.369C128 470.646 192 497.231 256 497.231C320.985 497.231 384 470.646 429.292 424.369C474.585 379.077 501.169 315.077 500.185 251.077C499.2 187.077 471.631 124.062 426.338 80.7385ZM345.6 35.4461C373.169 48.2461 398.769 65.9692 419.446 87.6308C449.969 119.138 471.631 160.492 480.492 202.831C461.785 209.723 443.077 218.585 425.354 227.446C405.662 237.292 385.969 248.123 366.277 258.954C356.431 264.862 345.6 270.769 335.754 277.662C335.754 268.8 335.754 259.938 334.769 252.062C334.769 247.138 334.769 241.231 333.785 236.308C333.785 233.354 334.769 230.4 334.769 226.462C336.738 203.815 336.738 182.154 336.738 159.508C336.738 136.862 335.754 115.2 334.769 92.5538C333.785 70.8923 330.831 50.2154 327.877 28.5538C333.785 30.5231 339.692 32.4923 345.6 35.4461ZM265.846 183.138C277.662 189.046 289.477 193.969 301.292 199.877C307.2 203.815 313.108 207.754 319.015 211.692C319.015 216.615 319.015 221.538 320 226.462C320 229.415 320 232.369 320.985 236.308C320.985 248.123 320 254.031 319.015 288.492C298.338 300.308 276.677 312.123 256 323.938C235.323 312.123 214.646 300.308 192.985 288.492C192.985 276.677 192 264.862 192 252.062C192 240.246 191.015 228.431 190.031 216.615C193.969 214.646 197.908 211.692 200.862 209.723C216.615 198.892 232.369 188.062 248.123 175.262C254.031 177.231 259.938 180.185 265.846 183.138ZM27.5692 251.077C26.5846 191.015 50.2154 130.954 92.5538 87.6308L100.431 79.7538C116.185 93.5385 133.908 105.354 150.646 116.185C169.354 128.985 188.062 139.815 207.754 151.631C220.554 158.523 233.354 165.415 246.154 172.308C228.431 179.2 211.692 187.077 194.954 194.954C175.262 204.8 155.569 215.631 135.877 226.462C116.185 238.277 97.4769 249.108 78.7692 261.908C63.0154 271.754 48.2461 282.585 33.4769 294.4C29.5385 280.615 27.5692 265.846 27.5692 251.077ZM95.5077 411.569C74.8308 390.892 57.1077 365.292 46.2769 337.723C41.3538 324.923 37.4154 312.123 33.4769 298.338C51.2 291.446 68.9231 283.569 85.6615 274.708C105.354 264.862 125.046 254.031 144.738 243.2C155.569 236.308 167.385 229.415 178.215 222.523C176.246 260.923 176.246 262.892 176.246 295.385C175.262 310.154 175.262 325.908 175.262 340.677C175.262 363.323 176.246 384.985 177.231 407.631C178.215 426.338 180.185 445.046 183.138 463.754C149.662 454.892 120.123 436.185 95.5077 411.569ZM256 477.538C232.369 477.538 208.738 473.6 186.092 466.708C189.046 448 191.015 428.308 192 409.6C193.969 386.954 193.969 365.292 193.969 342.646C193.969 330.831 193.969 319.015 192.985 308.185C207.754 317.046 236.308 333.785 251.077 342.646C264.862 351.508 278.646 360.369 292.431 369.231C311.138 380.062 330.831 391.877 350.523 401.723C367.262 410.585 384 418.462 401.723 425.354C361.354 458.831 309.169 478.523 256 477.538ZM416.492 411.569C412.554 415.508 408.615 418.462 404.677 422.4C389.908 409.6 374.154 398.769 358.4 387.938C340.677 375.138 321.969 363.323 302.277 352.492C292.431 346.585 282.585 340.677 272.738 335.754C292.431 323.938 312.123 313.108 331.815 301.292L335.754 298.338C349.538 291.446 362.338 283.569 376.123 276.677C394.831 265.846 414.523 254.031 433.231 241.231C449.969 230.4 465.723 218.585 481.477 205.785C484.431 220.554 485.415 236.308 485.415 251.077C484.431 280.615 478.523 311.138 466.708 338.708C454.892 366.277 438.154 390.892 416.492 411.569Z" fill="black"/>
</g>
<defs>
<linearGradient id="paint0_linear_36_16" x1="255" y1="0" x2="255" y2="512" gradientUnits="userSpaceOnUse">
<stop stop-color="white"/>
<stop offset="1" stop-color="white"/>
</linearGradient>
<clipPath id="clip0_36_16">
<rect width="512" height="512" fill="white"/>
</clipPath>
</defs>
</svg>
