<svg width="128" height="128" viewBox="0 0 128 128" fill="none" xmlns="http://www.w3.org/2000/svg">
<g clip-path="url(#clip0_36_2)">
<rect width="128" height="128" rx="32" fill="url(#paint0_linear_36_2)"/>
<path d="M17.4595 78.952C17.6515 78.568 17.9715 78.376 18.4195 78.376C18.5475 78.376 18.9315 78.504 19.5715 78.76C19.8915 78.952 20.4995 79.336 21.3955 79.912C22.3555 80.488 23.4435 80.968 24.6595 81.352C25.8755 81.736 27.1875 81.928 28.5955 81.928C34.5475 81.928 37.5235 78.152 37.5235 70.6V31.24C37.5235 30.792 37.6515 30.44 37.9075 30.184C38.1635 29.928 38.5155 29.8 38.9635 29.8H52.4995C52.9475 29.8 53.2995 29.928 53.5555 30.184C53.8115 30.44 53.9395 30.792 53.9395 31.24V71.176C53.9395 80.264 51.6995 86.984 47.2195 91.336C42.8035 95.688 36.7555 97.864 29.0755 97.864C24.9155 97.864 21.2355 97.192 18.0355 95.848C14.8995 94.44 12.4035 92.68 10.5475 90.568C10.2915 90.312 10.1635 90.024 10.1635 89.704C10.1635 89.384 10.3235 89 10.6435 88.552L17.4595 78.952ZM117.978 95.272C118.17 95.528 118.266 95.816 118.266 96.136C118.266 96.712 117.85 97 117.018 97H102.714C101.946 97 101.37 96.68 100.986 96.04L89.9455 77.32L78.8095 96.04C78.4255 96.68 77.8495 97 77.0815 97H62.8735C62.0415 97 61.6255 96.712 61.6255 96.136C61.6255 95.816 61.7215 95.528 61.9135 95.272L81.2095 62.632L62.8735 31.528C62.6815 31.144 62.5855 30.856 62.5855 30.664C62.5855 30.088 63.0015 29.8 63.8335 29.8H78.0415C78.8095 29.8 79.3855 30.12 79.7695 30.76L89.9455 47.848L100.026 30.76C100.41 30.12 100.986 29.8 101.754 29.8H116.058C116.89 29.8 117.306 30.088 117.306 30.664C117.306 30.856 117.21 31.144 117.018 31.528L98.5855 62.632L117.978 95.272Z" fill="url(#paint1_linear_36_2)"/>
</g>
<defs>
<linearGradient id="paint0_linear_36_2" x1="64" y1="0" x2="64" y2="128" gradientUnits="userSpaceOnUse">
<stop stop-color="white"/>
<stop offset="1" stop-color="white"/>
</linearGradient>
<linearGradient id="paint1_linear_36_2" x1="64" y1="0" x2="64" y2="115" gradientUnits="userSpaceOnUse">
<stop/>
<stop offset="1" stop-color="#828282"/>
</linearGradient>
<clipPath id="clip0_36_2">
<rect width="128" height="128" fill="white"/>
</clipPath>
</defs>
</svg>
