<svg id="Layer_1" enable-background="new 0 0 128 128" height="128" viewBox="0 0 128 128" width="128" xmlns="http://www.w3.org/2000/svg"><g><path d="m75.878 9.411-41.397 73.7 18.036.392 21.931-39.985c.065-.161.171-.304.313-.415.013-.01.024-.019.038-.028.023-.016.043-.035.068-.051.012-.007.025-.01.037-.016.041-.023.082-.041.125-.059.012-.005.023-.011.035-.015.264-.094.563-.082.828.063.23.126.389.329.469.559l42.154 75.032 8.205-19.6z"/><path d="m66.291 60.865 23.584 39.118c.105.136.174.298.199.476.004.018.005.034.006.052.003.026.01.053.01.079 0 .014-.004.026-.004.04 0 .048-.006.095-.013.141-.002.011-.003.023-.005.035-.051.276-.212.531-.472.687-.224.136-.478.17-.715.125l-87.601-1.016 13.572 16.986 103.664 1.001-43.133-72.703z"/><path d="m78.917 84.105-46.021 1c-.171.022-.347.003-.515-.065-.015-.006-.029-.012-.044-.019-.026-.012-.052-.02-.078-.034-.012-.006-.021-.016-.033-.022-.039-.023-.076-.051-.112-.079-.011-.008-.021-.016-.032-.024-.212-.182-.352-.447-.359-.748-.006-.262.091-.5.25-.684l43.905-74.019-21.614 3.384-52.984 87.807 86.08-.997z"/></g></svg>