<svg xmlns="http://www.w3.org/2000/svg" version="1.1" xmlns:xlink="http://www.w3.org/1999/xlink" width="512" height="512" x="0" y="0" viewBox="0 0 24 24" style="enable-background:new 0 0 512 512" xml:space="preserve" class=""><g><path d="M7.393 18.801A3.483 3.483 0 0 1 4.143 21H1.5a1.5 1.5 0 1 1 0-3h2.643a.496.496 0 0 0 .464-.314 1.499 1.499 0 1 1 2.785 1.115zM13 5a2.5 2.5 0 1 0 0-5 2.5 2.5 0 0 0 0 5zm8.077-5c-1.532 0-2.789 4.841-2.913 11H16a.496.496 0 0 1-.428-.242l-1.843-3.062a3.517 3.517 0 0 0-3-1.695H6.736a3.479 3.479 0 0 0-3.13 1.935l-1.447 2.895a1.501 1.501 0 0 0 2.684 1.342L6.29 9.278a.495.495 0 0 1 .447-.276h1.268L6.74 12.086c-.646 1.573-.07 3.375 1.428 4.322l4.081 2.322a.5.5 0 0 1 .252.435v3.337a1.5 1.5 0 1 0 3 0v-3.337a3.505 3.505 0 0 0-1.769-3.042l-2.614-1.486 1.332-3.247.552.917a3.517 3.517 0 0 0 2.999 1.695h3a1 1 0 0 1 0 2h-.676c.402 4.658 1.481 8 2.753 8 1.614 0 2.923-5.373 2.923-12S22.691 0 21.077 0z" fill="#ffffff" opacity="1" data-original="#000000" class=""></path></g></svg>