{
  "asset": {
    "generator": "Khronos glTF Blender I/O v4.3.47",
    "version": "2.0"
  },
  "extensionsUsed": [
    "KHR_materials_emissive_strength"
  ],
  "scene": 0,
  "scenes": [
    {
      "name": "personality_sphere.qc",
      "nodes": [
        63
      ]
    }
  ],
  "nodes": [
    {
      "name": "bandZ_joint",
      "translation": [
        0,
        0,
        2.702838766601573e-14
      ]
    },
    {
      "name": "axel_center_y",
      "translation": [
        0,
        0,
        2.702838766601573e-14
      ]
    },
    {
      "name": "eyeball_pistons_frontjoint_04",
      "rotation": [
        0.2110329568386078,
        -0.9673109650611877,
        -0.029975196346640587,
        0.1373906284570694
      ],
      "scale": [
        0.9999999403953552,
        0.9999998211860657,
        0.9999998807907104
      ],
      "translation": [
        10.158175468444824,
        -1.3491584062576294,
        -8.914573669433594
      ]
    },
    {
      "name": "eyeball_pistons_frontjoint_05",
      "rotation": [
        0.0053143869154155254,
        0.967774510383606,
        0.0013820960884913802,
        0.25175854563713074
      ],
      "scale": [
        0.9999999403953552,
        1.0000001192092896,
        1
      ],
      "translation": [
        10.158175468444824,
        -8.394828796386719,
        3.2888805866241455
      ]
    },
    {
      "name": "eyeball_pistons_frontjoint_06",
      "rotation": [
        -0.21718741953372955,
        -0.9673522114753723,
        0.028612148016691208,
        0.1274389624595642
      ],
      "scale": [
        1,
        0.9999995231628418,
        0.9999998807907104
      ],
      "translation": [
        10.158175468444824,
        -7.045669078826904,
        5.625693321228027
      ]
    },
    {
      "name": "eyelid_upper_main",
      "rotation": [
        -1.0157075180927677e-8,
        8.162123066313143e-8,
        0.12348918616771698,
        0.992345929145813
      ],
      "scale": [
        1,
        0.9999999403953552,
        1
      ],
      "translation": [
        0,
        0,
        2.702838766601573e-14
      ]
    },
    {
      "name": "eyelid_upper_compress01",
      "rotation": [
        -0.000004378831363283098,
        9.622075580750789e-9,
        0.12259415537118912,
        0.9924569129943848
      ],
      "translation": [
        0,
        0,
        2.702838766601573e-14
      ]
    },
    {
      "name": "eyelid_upper_compress02",
      "translation": [
        0,
        0,
        2.702838766601573e-14
      ]
    },
    {
      "name": "eyelid_lower_main",
      "rotation": [
        -0.9883904457092285,
        0.15193530917167664,
        -1.709376107328353e-7,
        1.3825538758283074e-7
      ],
      "scale": [
        1.000000238418579,
        1,
        1
      ],
      "translation": [
        0,
        0,
        2.702838766601573e-14
      ]
    },
    {
      "name": "eyelid_lower_compress_01",
      "rotation": [
        -0.9885587096214294,
        0.1508367359638214,
        -2.176391689090451e-7,
        0.000006808284524595365
      ],
      "scale": [
        0.9999976754188538,
        0.9999998211860657,
        1
      ],
      "translation": [
        0,
        0,
        2.702838766601573e-14
      ]
    },
    {
      "name": "eyelid_lower_compress_02",
      "rotation": [
        -1,
        -2.2041908229186724e-11,
        -7.549790126404332e-8,
        0.00004170769898337312
      ],
      "translation": [
        0,
        0,
        2.702838766601573e-14
      ]
    },
    {
      "children": [
        5,
        6,
        7,
        8,
        9,
        10
      ],
      "name": "eyelid_rotate",
      "translation": [
        0,
        0,
        2.702838766601573e-14
      ]
    },
    {
      "name": "inner01",
      "rotation": [
        -2.57597804420584e-7,
        0,
        0,
        1
      ],
      "translation": [
        0,
        4.580715179443359,
        0.0643400102853775
      ]
    },
    {
      "name": "inner02",
      "rotation": [
        -0.13052566349506378,
        0,
        0,
        0.9914449453353882
      ],
      "translation": [
        0,
        4.441282272338867,
        -1.1234281063079834
      ]
    },
    {
      "name": "inner03",
      "rotation": [
        -0.25881901383399963,
        0,
        0,
        0.9659258127212524
      ],
      "translation": [
        0,
        3.99918532371521,
        -2.234637498855591
      ]
    },
    {
      "name": "inner04",
      "rotation": [
        -0.3826834559440613,
        0,
        0,
        0.9238795638084412
      ],
      "translation": [
        0,
        3.2845492362976074,
        -3.1935596466064453
      ]
    },
    {
      "name": "inner05",
      "rotation": [
        -0.5000019669532776,
        0,
        0,
        0.8660243153572083
      ],
      "scale": [
        1,
        0.9999999403953552,
        0.9999999403953552
      ],
      "translation": [
        0,
        2.346076488494873,
        -3.9348459243774414
      ]
    },
    {
      "name": "inner06",
      "rotation": [
        -0.6087645888328552,
        0,
        0,
        0.7933509349822998
      ],
      "scale": [
        1,
        0.9999999403953552,
        1
      ],
      "translation": [
        0,
        1.2477240562438965,
        -4.4079790115356445
      ]
    },
    {
      "name": "inner07",
      "rotation": [
        -0.7071065902709961,
        0,
        0,
        0.7071069478988647
      ],
      "translation": [
        0,
        0.06434004008769989,
        -4.580714702606201
      ]
    },
    {
      "name": "inner08",
      "rotation": [
        -0.7933557629585266,
        0,
        0,
        0.608758270740509
      ],
      "translation": [
        0,
        -1.1234270334243774,
        -4.441282272338867
      ]
    },
    {
      "name": "inner09",
      "rotation": [
        -0.866025984287262,
        0,
        0,
        0.4999990165233612
      ],
      "scale": [
        1,
        1,
        1.0000001192092896
      ],
      "translation": [
        0,
        -2.2346367835998535,
        -3.999185800552368
      ]
    },
    {
      "name": "inner010",
      "rotation": [
        -0.9238795638084412,
        0,
        0,
        0.3826833963394165
      ],
      "scale": [
        1,
        1,
        1.0000003576278687
      ],
      "translation": [
        0,
        -3.1935582160949707,
        -3.2845499515533447
      ]
    },
    {
      "name": "inner011",
      "rotation": [
        -0.9659262299537659,
        0,
        0,
        0.2588176131248474
      ],
      "scale": [
        1,
        1,
        0.9999997615814209
      ],
      "translation": [
        0,
        -3.9348490238189697,
        -2.3460774421691895
      ]
    },
    {
      "name": "inner012",
      "rotation": [
        -0.9914448261260986,
        0,
        0,
        0.13052618503570557
      ],
      "scale": [
        1,
        1,
        1.0000005960464478
      ],
      "translation": [
        0,
        -4.407978057861328,
        -1.247724175453186
      ]
    },
    {
      "name": "inner013",
      "rotation": [
        -1,
        0,
        -7.549790126404332e-8,
        0.00003768287933780812
      ],
      "translation": [
        0,
        -4.580715179443359,
        -0.0643400028347969
      ]
    },
    {
      "name": "inner014",
      "rotation": [
        0.9914448261260986,
        0,
        0,
        0.13052618503570557
      ],
      "scale": [
        1,
        1,
        1.0000005960464478
      ],
      "translation": [
        0,
        -4.441282272338867,
        1.1234281063079834
      ]
    },
    {
      "name": "inner015",
      "rotation": [
        0.9659262299537659,
        0,
        0,
        0.2588176131248474
      ],
      "scale": [
        1,
        1,
        0.9999997615814209
      ],
      "translation": [
        0,
        -3.99918532371521,
        2.2346372604370117
      ]
    },
    {
      "name": "inner016",
      "rotation": [
        0.9238795638084412,
        0,
        0,
        0.3826833963394165
      ],
      "scale": [
        1,
        1,
        1.0000003576278687
      ],
      "translation": [
        0,
        -3.2845492362976074,
        3.193558931350708
      ]
    },
    {
      "name": "inner017",
      "rotation": [
        0.8660253882408142,
        0,
        0,
        0.5
      ],
      "scale": [
        1,
        1,
        1.0000001192092896
      ],
      "translation": [
        0,
        -2.346076488494873,
        3.934845209121704
      ]
    },
    {
      "name": "inner018",
      "rotation": [
        0.7933509349822998,
        0,
        0,
        0.6087645888328552
      ],
      "scale": [
        1,
        0.9999999403953552,
        0.9999999403953552
      ],
      "translation": [
        0,
        -1.2477240562438965,
        4.407978534698486
      ]
    },
    {
      "name": "inner019",
      "rotation": [
        0.7071067690849304,
        5.338507591545749e-8,
        5.338507591545749e-8,
        0.7071067690849304
      ],
      "translation": [
        0,
        -0.06434005498886108,
        4.580714702606201
      ]
    },
    {
      "name": "inner020",
      "rotation": [
        0.608758270740509,
        0,
        0,
        0.7933557629585266
      ],
      "translation": [
        0,
        1.1234288215637207,
        4.441283226013184
      ]
    },
    {
      "name": "inner021",
      "rotation": [
        0.5000009536743164,
        0,
        0,
        0.8660248517990112
      ],
      "translation": [
        0,
        2.2346367835998535,
        3.999185085296631
      ]
    },
    {
      "name": "inner022",
      "rotation": [
        0.3826834559440613,
        0,
        0,
        0.9238795638084412
      ],
      "translation": [
        0,
        3.1935601234436035,
        3.2845492362976074
      ]
    },
    {
      "name": "inner023",
      "rotation": [
        0.25881901383399963,
        0,
        0,
        0.9659258127212524
      ],
      "translation": [
        0,
        3.934845209121704,
        2.346076726913452
      ]
    },
    {
      "name": "inner024",
      "rotation": [
        0.13052566349506378,
        0,
        0,
        0.9914449453353882
      ],
      "translation": [
        0,
        4.407978057861328,
        1.247724175453186
      ]
    },
    {
      "children": [
        12,
        13,
        14,
        15,
        16,
        17,
        18,
        19,
        20,
        21,
        22,
        23,
        24,
        25,
        26,
        27,
        28,
        29,
        30,
        31,
        32,
        33,
        34,
        35
      ],
      "name": "inner_aperture",
      "translation": [
        10.862098693847656,
        -7.669925139452971e-9,
        -0.0643400102853775
      ]
    },
    {
      "name": "outer_Iris_ctrl",
      "translation": [
        15.437627792358398,
        -7.669925139452971e-9,
        -0.0643400102853775
      ]
    },
    {
      "children": [
        36,
        37
      ],
      "name": "eyelight_aimjoint",
      "translation": [
        0,
        0,
        2.702838766601573e-14
      ]
    },
    {
      "name": "eyeball_pistons_frontjoint_01",
      "rotation": [
        0.21718741953372955,
        -0.9673522114753723,
        -0.028612148016691208,
        0.1274389624595642
      ],
      "scale": [
        1,
        0.9999995231628418,
        0.9999998807907104
      ],
      "translation": [
        10.158175468444824,
        7.045666217803955,
        5.625693321228027
      ]
    },
    {
      "name": "eyeball_pistons_frontjoint_02",
      "rotation": [
        -0.0053143878467381,
        0.9677743315696716,
        -0.0013820932945236564,
        0.2517591714859009
      ],
      "scale": [
        0.9999999403953552,
        1.000000238418579,
        1
      ],
      "translation": [
        10.356624603271484,
        8.397323608398438,
        3.399625539779663
      ]
    },
    {
      "name": "eyeball_pistons_frontjoint_03",
      "rotation": [
        -0.21459132432937622,
        -0.9664233326911926,
        0.030638815835118294,
        0.13797757029533386
      ],
      "scale": [
        1,
        1.000000238418579,
        1
      ],
      "translation": [
        10.156951904296875,
        1.2375153303146362,
        -8.932600975036621
      ]
    },
    {
      "name": "eye_aim",
      "translation": [
        27.763694763183594,
        0,
        2.702838766601573e-14
      ]
    },
    {
      "children": [
        2,
        3,
        4,
        11,
        38,
        39,
        40,
        41,
        42
      ],
      "name": "eye_rot_fb",
      "translation": [
        0,
        0,
        2.702838766601573e-14
      ]
    },
    {
      "children": [
        43
      ],
      "name": "eyeball_retract",
      "translation": [
        0,
        0,
        2.702838766601573e-14
      ]
    },
    {
      "name": "cog_rotation",
      "translation": [
        -11.446175575256348,
        6.129379749298096,
        4.361963272094727
      ]
    },
    {
      "name": "eyeball_pistons_backjoint_01",
      "rotation": [
        0.02861235849559307,
        0.1274389773607254,
        0.21718662977218628,
        0.9673523902893066
      ],
      "scale": [
        0.9999999403953552,
        1.0000001192092896,
        1
      ],
      "translation": [
        -1.5655419826507568,
        1.3060561418533325,
        8.769213676452637
      ]
    },
    {
      "name": "eyeball_pistons_backjoint_06",
      "rotation": [
        -0.028612351045012474,
        0.12743902206420898,
        -0.21718662977218628,
        0.9673523902893066
      ],
      "scale": [
        1,
        1.0000001192092896,
        1
      ],
      "translation": [
        -1.5655419826507568,
        -1.3060559034347534,
        8.769213676452637
      ]
    },
    {
      "name": "eyeball_pistons_backjoint_02",
      "rotation": [
        -0.0013822434702888131,
        -0.25175875425338745,
        0.005313817877322435,
        0.9677744507789612
      ],
      "translation": [
        -1.5655419826507568,
        8.247390747070312,
        -3.2535295486450195
      ]
    },
    {
      "name": "eyeball_pistons_backjoint_03",
      "rotation": [
        -0.03063848428428173,
        0.1379774808883667,
        -0.21459367871284485,
        0.9664228558540344
      ],
      "scale": [
        1,
        0.9999999403953552,
        1
      ],
      "translation": [
        -1.5655419826507568,
        6.941333293914795,
        -5.515684604644775
      ]
    },
    {
      "name": "eyeball_pistons_backjoint_04",
      "rotation": [
        0.029973061755299568,
        0.13739044964313507,
        0.21103164553642273,
        0.9673113226890564
      ],
      "scale": [
        1,
        1,
        0.9999999403953552
      ],
      "translation": [
        -1.5655419826507568,
        -6.9413323402404785,
        -5.515684604644775
      ]
    },
    {
      "name": "eyeball_pistons_backjoint_05",
      "rotation": [
        0.0013822434702888131,
        -0.2517586946487427,
        -0.005313817877322435,
        0.9677744507789612
      ],
      "scale": [
        1.0000001192092896,
        1,
        1
      ],
      "translation": [
        -1.5655419826507568,
        -8.24738883972168,
        -3.2535295486450195
      ]
    },
    {
      "name": "bandY_joint",
      "translation": [
        0,
        0,
        2.702838766601573e-14
      ]
    },
    {
      "children": [
        1,
        44,
        45,
        46,
        47,
        48,
        49,
        50,
        51,
        52
      ],
      "name": "Main_Inner_rotation",
      "translation": [
        0,
        0,
        2.702838766601573e-14
      ]
    },
    {
      "name": "wing_upper",
      "rotation": [
        -6.71794140316706e-8,
        0,
        0,
        1
      ],
      "translation": [
        -15.39523696899414,
        0,
        2.702838766601573e-14
      ]
    },
    {
      "name": "wing_lower",
      "rotation": [
        0.7071067094802856,
        0,
        -0.7071068286895752,
        3.3188815251605774e-8
      ],
      "translation": [
        -15.39523696899414,
        0,
        2.702838766601573e-14
      ]
    },
    {
      "children": [
        0,
        53,
        54,
        55
      ],
      "name": "axel_center_z"
    },
    {
      "name": "handle_upper",
      "translation": [
        6.799765110015869,
        10.403064727783203,
        2.2737367544323206e-13
      ]
    },
    {
      "name": "handle_lower",
      "rotation": [
        1.1226575225009583e-12,
        0,
        0,
        1
      ],
      "translation": [
        6.799765110015869,
        -10.325658798217773,
        1.1368683772161603e-13
      ]
    },
    {
      "name": "wing_side_right",
      "rotation": [
        -4.768372718899627e-7,
        0,
        0,
        1
      ],
      "translation": [
        -15.39523696899414,
        0.0000012377561233734014,
        10.383050918579102
      ]
    },
    {
      "name": "wing_side_left",
      "rotation": [
        -4.768372718899627e-7,
        0,
        0,
        1
      ],
      "translation": [
        -15.39523696899414,
        -0.0000012342395621089963,
        -10.353551864624023
      ]
    },
    {
      "children": [
        56,
        57,
        58,
        59,
        60
      ],
      "name": "Root",
      "rotation": [
        6.339203650895797e-8,
        0,
        0,
        1
      ]
    },
    {
      "mesh": 0,
      "name": "Personality_Sphere_model",
      "skin": 0
    },
    {
      "children": [
        62,
        61
      ],
      "name": "personality_sphere",
      "translation": [
        0,
        27.002193450927734,
        0
      ]
    }
  ],
  "materials": [
    {
      "doubleSided": true,
      "name": "personality_sphere",
      "pbrMetallicRoughness": {
        "baseColorTexture": {
          "index": 0
        },
        "metallicFactor": 0,
        "roughnessFactor": 0.5
      }
    },
    {
      "doubleSided": true,
      "emissiveFactor": [
        1,
        1,
        1
      ],
      "emissiveTexture": {
        "index": 1
      },
      "extensions": {
        "KHR_materials_emissive_strength": {
          "emissiveStrength": 2
        }
      },
      "name": "personality_sphere_light",
      "pbrMetallicRoughness": {
        "baseColorFactor": [
          0,
          0,
          0,
          1
        ]
      }
    }
  ],
  "meshes": [
    {
      "name": "personality_sphere_model",
      "primitives": [
        {
          "attributes": {
            "POSITION": 0,
            "NORMAL": 1,
            "TEXCOORD_0": 2,
            "JOINTS_0": 3,
            "WEIGHTS_0": 4
          },
          "indices": 5,
          "material": 0
        },
        {
          "attributes": {
            "POSITION": 6,
            "NORMAL": 7,
            "TEXCOORD_0": 8,
            "JOINTS_0": 9,
            "WEIGHTS_0": 10
          },
          "indices": 11,
          "material": 1
        }
      ]
    }
  ],
  "textures": [
    {
      "sampler": 0,
      "source": 0
    },
    {
      "sampler": 0,
      "source": 1
    }
  ],
  "images": [
    {
      "mimeType": "image/jpeg",
      "name": "personality_sphere_clean",
      "uri": "../../textures/WheatleyAnimated/personality_sphere_clean.jpg"
    },
    {
      "mimeType": "image/jpeg",
      "name": "personality_sphere_light_damaged",
      "uri": "../../textures/WheatleyAnimated/personality_sphere_light_damaged.jpg"
    }
  ],
  "skins": [
    {
      "inverseBindMatrices": 12,
      "joints": [
        61,
        56,
        0,
        53,
        1,
        44,
        43,
        2,
        3,
        4,
        11,
        5,
        6,
        7,
        8,
        9,
        10,
        38,
        36,
        12,
        13,
        14,
        15,
        16,
        17,
        18,
        19,
        20,
        21,
        22,
        23,
        24,
        25,
        26,
        27,
        28,
        29,
        30,
        31,
        32,
        33,
        34,
        35,
        37,
        39,
        40,
        41,
        42,
        45,
        46,
        47,
        48,
        49,
        50,
        51,
        52,
        54,
        55,
        57,
        58,
        59,
        60
      ],
      "name": "personality_sphere"
    }
  ],
  "accessors": [
    {
      "bufferView": 0,
      "componentType": 5126,
      "count": 14230,
      "max": [
        14.426780700683594,
        45.69064712524414,
        15.245546340942383
      ],
      "min": [
        -15.39523696899414,
        8.39114761352539,
        -15.245546340942383
      ],
      "type": "VEC3"
    },
    {
      "bufferView": 1,
      "componentType": 5126,
      "count": 14230,
      "type": "VEC3"
    },
    {
      "bufferView": 2,
      "componentType": 5126,
      "count": 14230,
      "type": "VEC2"
    },
    {
      "bufferView": 3,
      "componentType": 5121,
      "count": 14230,
      "type": "VEC4"
    },
    {
      "bufferView": 4,
      "componentType": 5126,
      "count": 14230,
      "type": "VEC4"
    },
    {
      "bufferView": 5,
      "componentType": 5123,
      "count": 38694,
      "type": "SCALAR"
    },
    {
      "bufferView": 6,
      "componentType": 5126,
      "count": 37,
      "max": [
        10.77919864654541,
        32.357688903808594,
        5.355494499206543
      ],
      "min": [
        9.704733848571777,
        21.64669418334961,
        -5.355496406555176
      ],
      "type": "VEC3"
    },
    {
      "bufferView": 7,
      "componentType": 5126,
      "count": 37,
      "type": "VEC3"
    },
    {
      "bufferView": 8,
      "componentType": 5126,
      "count": 37,
      "type": "VEC2"
    },
    {
      "bufferView": 9,
      "componentType": 5121,
      "count": 37,
      "type": "VEC4"
    },
    {
      "bufferView": 10,
      "componentType": 5126,
      "count": 37,
      "type": "VEC4"
    },
    {
      "bufferView": 11,
      "componentType": 5123,
      "count": 180,
      "type": "SCALAR"
    },
    {
      "bufferView": 12,
      "componentType": 5126,
      "count": 62,
      "type": "MAT4"
    }
  ],
  "bufferViews": [
    {
      "buffer": 0,
      "byteLength": 170760,
      "byteOffset": 0,
      "target": 34962
    },
    {
      "buffer": 0,
      "byteLength": 170760,
      "byteOffset": 170760,
      "target": 34962
    },
    {
      "buffer": 0,
      "byteLength": 113840,
      "byteOffset": 341520,
      "target": 34962
    },
    {
      "buffer": 0,
      "byteLength": 56920,
      "byteOffset": 455360,
      "target": 34962
    },
    {
      "buffer": 0,
      "byteLength": 227680,
      "byteOffset": 512280,
      "target": 34962
    },
    {
      "buffer": 0,
      "byteLength": 77388,
      "byteOffset": 739960,
      "target": 34963
    },
    {
      "buffer": 0,
      "byteLength": 444,
      "byteOffset": 817348,
      "target": 34962
    },
    {
      "buffer": 0,
      "byteLength": 444,
      "byteOffset": 817792,
      "target": 34962
    },
    {
      "buffer": 0,
      "byteLength": 296,
      "byteOffset": 818236,
      "target": 34962
    },
    {
      "buffer": 0,
      "byteLength": 148,
      "byteOffset": 818532,
      "target": 34962
    },
    {
      "buffer": 0,
      "byteLength": 592,
      "byteOffset": 818680,
      "target": 34962
    },
    {
      "buffer": 0,
      "byteLength": 360,
      "byteOffset": 819272,
      "target": 34963
    },
    {
      "buffer": 0,
      "byteLength": 3968,
      "byteOffset": 819632
    }
  ],
  "samplers": [
    {
      "magFilter": 9729,
      "minFilter": 9987
    }
  ],
  "buffers": [
    {
      "byteLength": 823600,
      "uri": "WheatleyAnimated.bin"
    }
  ]
}